<?xml version="1.0" encoding="UTF-8"?>
<svg id="Layer_2" data-name="Layer 2" xmlns="http://www.w3.org/2000/svg" viewBox="0 0 302.69 311.07">
  <defs>
    <style>
      .cls-1 {
        fill: #c1ff72;
      }

      .cls-2 {
        fill: #2c0a71;
      }

      .cls-3 {
        fill: #f0cdff;
      }
    </style>
  </defs>
  <g id="Layer_2-2" data-name="Layer 2">
    <g>
      <g>
        <path class="cls-1" d="M269.51,183c-.58-.64-1.22-1.16-2.72-2.41l-2.45-1.88,3.56-1.22c.2-.16,1.88-.51,2.49-.76,6.11-2.56,10.41-6.67,15.1-12.13,11.8-13.68,14.51-32.87,6.91-48.84-5.72-12.04-20.37-24.49-44.3-23.36-10.5.5-19.41,2.14-27.23,5.01l-5.96,2.18,2.07-5.99c6.02-17.42,6.98-33.05,3.12-50.64-4.6-20.97-19.27-35.03-38.26-36.75-22.17-2-42.89,11.29-50.35,32.3-.31.91-1.71,6.09-1.8,7.1l.07,8.54-5.4-6.7c-9.15-11.16-23.37-17.4-38.04-16.67-6.98.34-13.8,2.39-20.26,6.09-10.61,6.08-17.54,16.08-19.51,28.18-1.47,8.51-.61,17.18,2.63,26.55,4.92,14.18,12.14,25.88,22.11,35.78l4.59,4.55-6.45.58c-17.65,1.6-33.76,7.72-46.58,17.72-12.58,9.82-18.95,25.77-16.23,40.63,3.46,18.81,17.78,33.96,36.51,38.57,6.04,1.49,11.86,1.76,17.81.79l6.57-1.05-3.56,5.64c-11.55,18.35-8.82,42.5,6.47,57.44,6.23,6.08,13.59,9.82,21.84,11.09,5.62.88,11.01.64,16.46-.71,19.92-4.96,40.09-25.47,47.39-41.62l5.52-12.25,1.59,9.92c2.24,13.94.41,27.65-1.43,38.05-.4,2.27,1.74,4.72,3.87,6.26,2.96,2.12,9.39,3.2,11.89.28,4.09-4.82,5.44-11.96,6.63-18.26,2.04-10.85,1.59-24.41-1.26-38.18l-2-9.66,7.05,6.9c13.06,12.76,28.03,20.88,44.54,24.11,4.15.81,8.68,1.6,13.7,1.93,24.11,1.53,42.82-11.53,47.68-33.28,4.86-21.73-5.17-43.82-24.41-53.83ZM115.13,181.57c-3,2.69-7.69,4.78-12.81,4.78-2.13,0-4.33-.36-6.51-1.18-3.08-1.16-5.26-3.58-5.98-6.63-.81-3.45.61-7.09,3.91-9.99,4.13-3.64,11.84-6.33,19-3.64,3.18,1.19,5.37,3.57,6.18,6.71.87,3.38-.51,7.01-3.79,9.95ZM220.73,153.61c-3.53,4.61-9.2,7.22-14.89,7.22-2.18,0-4.37-.38-6.44-1.18-3.21-1.24-5.45-3.74-6.16-6.88-.61-2.72.31-5.82,2.49-8.29,3.16-3.59,8.36-5.98,13.58-6.22,4.22-.2,7.97,1.05,10.57,3.5,3.34,3.15,3.7,8.14.85,11.86Z"/>
        <path class="cls-2" d="M276.25,179.95c5.1-2.85,9.73-6.67,13.81-11.4,13.35-15.5,16.4-37.24,7.78-55.38-8.37-17.58-27.54-27.85-50.02-26.79-8.68.41-16.38,1.57-23.35,3.54,4.76-16.32,5.2-31.43,1.5-48.26C220.79,18.04,204.07,2.16,182.37.22c-24.93-2.24-48.18,12.66-56.56,36.27-.04.13-.4,1.3-.81,2.79-10.24-9.87-24.41-15.23-38.97-14.52-7.95.4-15.67,2.71-22.96,6.88-12.21,7-20.19,18.52-22.44,32.4-1.64,9.52-.71,19.18,2.88,29.52,4.51,13.02,10.88,24.1,19.38,33.67-16.45,2.44-31.46,8.68-43.7,18.23-14.34,11.19-21.59,29.42-18.46,46.48,3.88,21.14,19.96,38.14,40.98,43.33,4.84,1.19,9.56,1.69,14.31,1.49-9.59,19.93-5.68,44.27,10.23,59.8,7.14,6.98,15.6,11.26,25.13,12.75,6.43.99,12.59.72,18.84-.84,19.07-4.75,38.32-22.48,48.01-38.56.26,9.45-1.03,18.46-2.34,25.75-.75,4.28,1.6,8.84,6.28,12.21,2.62,1.88,6.59,3.19,10.5,3.19,3.6,0,7.14-1.1,9.51-3.9,5.13-6.02,6.63-14,7.96-21.05,1.74-9.28,1.8-20.34.21-31.83,12.31,10.23,26.08,16.89,41.04,19.8,4.35.85,9.12,1.69,14.48,2.03,26.8,1.7,48.49-13.56,53.94-37.97,5.11-22.86-4.49-46.1-23.54-58.21ZM293.92,236.84c-4.86,21.74-23.57,34.81-47.68,33.28-5.01-.33-9.55-1.12-13.7-1.93-16.5-3.23-31.48-11.35-44.54-24.11l-7.05-6.9,2,9.66c2.85,13.77,3.3,27.33,1.26,38.18-1.19,6.3-2.54,13.44-6.63,18.26-2.49,2.92-8.93,1.84-11.89-.28-2.12-1.54-4.26-3.99-3.87-6.26,1.84-10.4,3.67-24.11,1.43-38.05l-1.59-9.92-5.52,12.25c-7.3,16.15-27.47,36.66-47.39,41.62-5.45,1.35-10.84,1.59-16.46.71-8.26-1.27-15.61-5.01-21.84-11.09-15.3-14.95-18.02-39.1-6.47-57.44l3.56-5.64-6.57,1.05c-5.95.96-11.77.69-17.81-.79-18.73-4.62-33.05-19.76-36.51-38.57-2.72-14.86,3.65-30.81,16.23-40.63,12.82-10,28.93-16.12,46.58-17.72l6.45-.58-4.59-4.55c-9.97-9.9-17.2-21.6-22.11-35.78-3.24-9.36-4.11-18.03-2.63-26.55,1.97-12.1,8.9-22.1,19.51-28.18,6.46-3.7,13.27-5.75,20.26-6.09,14.66-.72,28.88,5.51,38.04,16.67l5.4,6.7-.07-8.54c.09-1.01,1.49-6.19,1.8-7.1,7.45-21.01,28.18-34.3,50.35-32.3,19,1.71,33.66,15.78,38.26,36.75,3.87,17.59,2.9,33.22-3.12,50.64l-2.07,5.99,5.96-2.18c7.82-2.88,16.73-4.52,27.23-5.01,23.93-1.13,38.57,11.32,44.3,23.36,7.59,15.98,4.89,35.16-6.91,48.84-4.69,5.45-8.99,9.56-15.1,12.13-.61.25-2.3.61-2.49.76l-3.56,1.22,2.45,1.88c1.5,1.25,2.14,1.77,2.72,2.41,19.24,10.02,29.27,32.1,24.41,53.83Z"/>
      </g>
      <g>
        <g>
          <path class="cls-3" d="M110.67,170.92c-1.32-.48-2.68-.71-4.04-.71-3.43,0-6.79,1.4-8.87,3.23-.75.67-2.44,2.37-2.03,4.09.24,1.06,1.06,1.93,2.24,2.37,5.06,1.91,10.37.07,13.17-2.44,1.3-1.16,2.04-2.46,2.04-3.5,0-.17-.01-.33-.06-.47-.33-1.23-1.13-2.07-2.47-2.58Z"/>
          <path class="cls-2" d="M118.96,171.98c-.81-3.13-3-5.51-6.18-6.7-7.17-2.69-14.87,0-19.01,3.64-3.29,2.9-4.72,6.54-3.9,9.99.71,3.05,2.89,5.47,5.98,6.63,2.18.82,4.38,1.18,6.5,1.18,5.13,0,9.8-2.08,12.81-4.77,3.29-2.95,4.67-6.57,3.8-9.96ZM111.15,177.46c-2.8,2.51-8.12,4.35-13.17,2.44-1.18-.44-2-1.3-2.24-2.37-.41-1.73,1.28-3.43,2.03-4.09,2.08-1.83,5.44-3.23,8.87-3.23,1.36,0,2.72.23,4.04.71,1.33.51,2.14,1.35,2.47,2.58.04.14.06.3.06.47,0,1.03-.74,2.34-2.04,3.5Z"/>
        </g>
        <g>
          <path class="cls-2" d="M124.33,148.08c1.03,4.97,2.07,9.94,3.1,14.9.57,2.72,3.72,4.68,6.4,3.89,2.84-.83,4.5-3.49,3.89-6.4-1.03-4.97-2.07-9.94-3.1-14.9-.57-2.72-3.72-4.68-6.4-3.89-2.84.83-4.5,3.49-3.89,6.4h0Z"/>
          <path class="cls-2" d="M170.04,138.65c1.03,4.97,2.07,9.94,3.1,14.9.57,2.72,3.72,4.68,6.4,3.89,2.84-.83,4.5-3.49,3.89-6.4-1.03-4.97-2.07-9.94-3.1-14.9-.57-2.72-3.72-4.68-6.4-3.89-2.84.83-4.5,3.49-3.89,6.4h0Z"/>
        </g>
        <g>
          <path class="cls-3" d="M213.82,145.67c-1.32-.48-2.68-.71-4.04-.71-3.43,0-6.79,1.4-8.87,3.23-.75.67-2.44,2.37-2.03,4.09.24,1.06,1.06,1.93,2.24,2.37,5.06,1.91,10.37.07,13.17-2.44,1.3-1.16,2.04-2.46,2.04-3.5,0-.17-.01-.33-.06-.47-.33-1.23-1.13-2.07-2.47-2.58Z"/>
          <path class="cls-2" d="M222.11,146.74c-.81-3.13-3-5.51-6.18-6.7-7.17-2.69-14.87,0-19.01,3.64-3.29,2.9-4.72,6.54-3.9,9.99.71,3.05,2.89,5.47,5.98,6.63,2.18.82,4.38,1.18,6.5,1.18,5.13,0,9.8-2.08,12.81-4.77,3.29-2.95,4.67-6.57,3.8-9.96ZM214.3,152.22c-2.8,2.51-8.12,4.35-13.17,2.44-1.18-.44-2-1.3-2.24-2.37-.41-1.73,1.28-3.43,2.03-4.09,2.08-1.83,5.44-3.23,8.87-3.23,1.36,0,2.72.23,4.04.71,1.33.51,2.14,1.35,2.47,2.58.04.14.06.3.06.47,0,1.03-.74,2.34-2.04,3.5Z"/>
        </g>
        <path class="cls-2" d="M163.95,198.48c-2.97,0-5.93-1.06-8.58-3.09-3.34-2.58-5.8-6.45-6.91-10.92-2.36-9.48,2.1-18.78,9.95-20.73,3.93-.98,8.05-.01,11.6,2.72,3.34,2.58,5.8,6.45,6.91,10.92h0c2.36,9.48-2.1,18.78-9.95,20.73-1,.25-2.01.37-3.03.37ZM161.41,169.36c-.52,0-1.04.06-1.55.19-4.64,1.16-7.14,7.19-5.58,13.46.79,3.16,2.47,5.87,4.75,7.62,2.07,1.59,4.37,2.18,6.49,1.65,4.64-1.16,7.14-7.19,5.58-13.46-.79-3.16-2.47-5.86-4.75-7.62-1.57-1.21-3.28-1.84-4.94-1.84Z"/>
      </g>
    </g>
  </g>
</svg>